<svg width="45" height="40" viewBox="0 0 45 40" fill="none" xmlns="http://www.w3.org/2000/svg">
<path d="M44.55 0H0.45C0.2025 0 0 0.204545 0 0.454545V4.09091C0 4.34091 0.2025 4.54545 0.45 4.54545H44.55C44.7975 4.54545 45 4.34091 45 4.09091V0.454545C45 0.204545 44.7975 0 44.55 0ZM44.55 35.4545H0.45C0.2025 35.4545 0 35.6591 0 35.9091V39.5455C0 39.7955 0.2025 40 0.45 40H44.55C44.7975 40 45 39.7955 45 39.5455V35.9091C45 35.6591 44.7975 35.4545 44.55 35.4545ZM44.55 17.7273H0.45C0.2025 17.7273 0 17.9318 0 18.1818V21.8182C0 22.0682 0.2025 22.2727 0.45 22.2727H44.55C44.7975 22.2727 45 22.0682 45 21.8182V18.1818C45 17.9318 44.7975 17.7273 44.55 17.7273Z" fill="white" fill-opacity="0.5"/>
</svg>
